Jason and the Argonauts 2000 DVDRip Xvid fasamoo LKRG

RIPPER                           : fasamoo
Format                           : AVI
Format/Info                      : Audio Video Interleave
File size                        : 998 MiB
Duration                         : 2h 49mn
Overall bit rate                 : 824 Kbps
Writing application              : VirtualDubMod 1.5.4.1 (build 2178/release)
Writing library                  : VirtualDubMod build 2178/release
Language                         : English
Genre                            : Adventure | Fantasy 

Video
ID                               : 0
Format                           : MPEG-4 Visual
Format profile                   : Advanced Simple@L5
Format settings, BVOP            : Yes
Format settings, QPel            : No
Format settings, GMC             : No warppoints
Format settings, Matrix          : Custom
Codec ID                         : XVID
Codec ID/Hint                    : XviD
Duration                         : 2h 49mn
Bit rate                         : 693 Kbps
Width                            : 368 pixels
Height                           : 256 pixels
Display aspect ratio             : 1.438
Frame rate                       : 29.970 fps
Color space                      : YUV
Chroma subsampling               : 4:2:0
Bit depth                        : 8 bits
Scan type                        : Progressive
Bits/(Pixel*Frame)               : 0.245
Stream size                      : 839 MiB (84%)
Writing library                  : XviD 1.2.1 (UTC 2008-12-04)

Audio
ID                               : 1
Format                           : MPEG Audio
Format version                   : Version 1
Format profile                   : Layer 3
Mode                             : Joint stereo
Mode extension                   : MS Stereo
Codec ID                         : 55
Codec ID/Hint                    : MP3
Duration                         : 2h 49mn
Bit rate mode                    : Variable
Bit rate                         : 118 Kbps
Nominal bit rate                 : 128 Kbps
Channel(s)                       : 2 channels
Sampling rate                    : 48.0 KHz
Stream size                      : 143 MiB (14%)
Alignment                        : Aligned on interleaves
Interleave, duration             : 24 ms (0.72 video frame)
Interleave, preload duration     : 259 ms
Writing library                  : LAME3.98r
Encoding settings                : -m j -V 4 -q 2 -lowpass 17 --abr 128

PLOT

One of the most legendary adventures in all mythology is brought to life in Jason and the Argonauts, an epic saga of good and evil. As a mere boy Jason, the heir to the kingdom of Ancient Greece, witnesses the murder of his father at the hands of his ruthless uncle, Pelias. After narrowly escaping death, Jason flees his home and returns twenty years later to reclaim the throne. Upon learning of his return, Pelias sentences him to death. To save his life, Jason promises to deliver the most converted gift of the gods to his uncle - the Golden Fleece. Joined by the Argonauts, a stout-hearted crew of sailors, he embarks on a perilous voyage to capture the Fleece and fulfill his destiny. 


                                 IMBD
                     
                 http://www.imdb.com/title/tt0217579/
 
http://leetleech.org/images/48028462830216967967.png 
http://leetleech.org/images/27030303624283334375.png 
http://leetleech.org/images/29367567845912223230.png 
http://leetleech.org/images/58469343053829900054.png 
http://leetleech.org/images/87507424262169653588.png 
http://leetleech.org/images/51775828365896769703.png